ffmpeg started on 2025-05-12 at 21:23:27
Report written to "D:\Convert\FFMetrics\reports\psnr_report-6.txt"
Log level: 32
Command line:
ffmpeg -hide_banner -nostdin -i "G:\\\xc0\xed\xe8\xec\xe5\\\xce\xed\xe3\xee\xe8\xed\xe3\xe8\\!_35_\xcb\xe5\xf2\xee_2024\\DreamCast-1\\\xd1\xe0\xec\xfb\xe9 \xf1\xe8\xeb\xfc\xed\xfb\xe9 \xe2\xee\xeb\xf8\xe5\xe1\xed\xe8\xea \xe0\xf0\xec\xe8\xe8 \xef\xee\xe2\xe5\xeb\xe8\xf2\xe5\xeb\xff \xe4\xe5\xec\xee\xed\xee\xe2 \xee\xea\xe0\xe7\xe0\xeb\xf1\xff \xf7\xe5\xeb\xee\xe2\xe5\xea\xee\xec\\DC_Maou_Gun_Saikyou_no_Majutsushi_wa_Ningen_datta_08_Telegram_HEVC.mkv" -i "G:\\\xc0\xed\xe8\xec\xe5\\\xce\xed\xe3\xee\xe8\xed\xe3\xe8\\!_35_\xcb\xe5\xf2\xee_2024\\DreamCast-1\\\xd1\xe0\xec\xfb\xe9 \xf1\xe8\xeb\xfc\xed\xfb\xe9 \xe2\xee\xeb\xf8\xe5\xe1\xed\xe8\xea \xe0\xf0\xec\xe8\xe8 \xef\xee\xe2\xe5\xeb\xe8\xf2\xe5\xeb\xff \xe4\xe5\xec\xee\xed\xee\xe2 \xee\xea\xe0\xe7\xe0\xeb\xf1\xff \xf7\xe5\xeb\xee\xe2\xe5\xea\xee\xec\\DC_Maou_Gun_Saikyou_no_Majutsushi_wa_Ningen_datta_08_Telegram.mp4" -lavfi "[0:v]settb=AVTB,setpts=PTS-STARTPTS,format=pix_fmts=yuv420p10,fps=24000/1001,scale=1920:1080:flags=bicubic[main];[1:v]settb=AVTB,setpts=PTS-STARTPTS,format=pix_fmts=yuv420p,fps=24000/1001,scale=1920:1080:flags=bicubic[ref];[main][ref]psnr=eof_action=endall:stats_file='D\\:/Convert/FFMetrics/logs/psnr_logfile-6.txt'" -f null -
Input #0, matroska,webm, from 'G:\Аниме\Онгоинги\!_35_Лето_2024\DreamCast-1\Самый сильный волшебник армии повелителя демонов оказался человеком\DC_Maou_Gun_Saikyou_no_Majutsushi_wa_Ningen_datta_08_Telegram_HEVC.mkv':
  Metadata:
    COMPATIBLE_BRANDS: isomiso2avc1mp41
    MAJOR_BRAND     : isom
    MINOR_VERSION   : 512
    ENCODER         : Lavf61.7.100
  Duration: 00:23:46.73, start: -0.021000, bitrate: 1065 kb/s
  Stream #0:0: Video: hevc (Main 10), yuv420p10le(tv, bt709, progressive), 1920x1080 [SAR 1:1 DAR 16:9], 23.98 fps, 23.98 tbr, 1k tbn (default)
      Metadata:
        HANDLER_NAME    : VideoHandler
        VENDOR_ID       : [0][0][0][0]
        ENCODER         : Lavc61.19.100 libx265
        BPS             : 868277
        DURATION        : 00:23:46.549708333
        NUMBER_OF_FRAMES: 34203
        NUMBER_OF_BYTES : 154829980
        _STATISTICS_WRITING_APP: mkvpropedit v66.0.0 ('Josie') 64-bit
        _STATISTICS_WRITING_DATE_UTC: 2025-05-10 16:19:17
        _STATISTICS_TAGS: BPS DURATION NUMBER_OF_FRAMES NUMBER_OF_BYTES
  Stream #0:1: Audio: aac (LC), 48000 Hz, stereo, fltp (default)
      Metadata:
        HANDLER_NAME    : SoundHandler
        VENDOR_ID       : [0][0][0][0]
        ENCODER         : Lavc61.19.100 aac
        BPS             : 193580
        DURATION        : 00:23:46.730000000
        NUMBER_OF_FRAMES: 66879
        NUMBER_OF_BYTES : 34523473
        _STATISTICS_WRITING_APP: mkvpropedit v66.0.0 ('Josie') 64-bit
        _STATISTICS_WRITING_DATE_UTC: 2025-05-10 16:19:17
        _STATISTICS_TAGS: BPS DURATION NUMBER_OF_FRAMES NUMBER_OF_BYTES
Input #1, mov,mp4,m4a,3gp,3g2,mj2, from 'G:\Аниме\Онгоинги\!_35_Лето_2024\DreamCast-1\Самый сильный волшебник армии повелителя демонов оказался человеком\DC_Maou_Gun_Saikyou_no_Majutsushi_wa_Ningen_datta_08_Telegram.mp4':
  Metadata:
    major_brand     : isom
    minor_version   : 512
    compatible_brands: isomiso2avc1mp41
    encoder         : Lavf61.1.100
  Duration: 00:23:46.68, start: 0.000000, bitrate: 3704 kb/s
  Stream #1:0[0x1](und): Video: h264 (High) (avc1 / 0x31637661), yuv420p(tv, bt709, progressive), 1920x1080 [SAR 1:1 DAR 16:9], 3556 kb/s, 23.98 fps, 23.98 tbr, 24k tbn (default)
      Metadata:
        handler_name    : VideoHandler
        vendor_id       : [0][0][0][0]
        encoder         : Lavc61.3.100 h264_qsv
  Stream #1:1[0x2](und): Audio: aac (HE-AACv2) (mp4a / 0x6134706D), 48000 Hz, stereo, fltp, 144 kb/s (default)
      Metadata:
        handler_name    : SoundHandler
        vendor_id       : [0][0][0][0]
Stream mapping:
  Stream #0:0 (hevc) -> settb:default
  Stream #1:0 (h264) -> settb:default
  psnr:default -> Stream #0:0 (wrapped_avframe)
  Stream #0:1 -> #0:1 (aac (native) -> pcm_s16le (native))
Output #0, null, to 'pipe:':
  Metadata:
    COMPATIBLE_BRANDS: isomiso2avc1mp41
    MAJOR_BRAND     : isom
    MINOR_VERSION   : 512
    encoder         : Lavf61.7.100
  Stream #0:0: Video: wrapped_avframe, yuv420p10le(tv, bt709, progressive), 1920x1080 [SAR 1:1 DAR 16:9], q=2-31, 200 kb/s, 23.98 fps, 23.98 tbn
      Metadata:
        encoder         : Lavc61.19.100 wrapped_avframe
  Stream #0:1: Audio: pcm_s16le, 48000 Hz, stereo, s16, 1536 kb/s (default)
      Metadata:
        HANDLER_NAME    : SoundHandler
        VENDOR_ID       : [0][0][0][0]
        _STATISTICS_TAGS: BPS DURATION NUMBER_OF_FRAMES NUMBER_OF_BYTES
        BPS             : 193580
        DURATION        : 00:23:46.730000000
        NUMBER_OF_FRAMES: 66879
        NUMBER_OF_BYTES : 34523473
        _STATISTICS_WRITING_APP: mkvpropedit v66.0.0 ('Josie') 64-bit
        _STATISTICS_WRITING_DATE_UTC: 2025-05-10 16:19:17
        encoder         : Lavc61.19.100 pcm_s16le
frame=  154 fps=0.0 q=-0.0 size=N/A time=00:00:06.42 bitrate=N/A speed=12.4x    frame=  403 fps=387 q=-0.0 size=N/A time=00:00:16.80 bitrate=N/A speed=16.1x    frame=  615 fps=397 q=-0.0 size=N/A time=00:00:25.65 bitrate=N/A speed=16.6x    frame=  802 fps=388 q=-0.0 size=N/A time=00:00:33.45 bitrate=N/A speed=16.2x    frame= 1042 fps=402 q=-0.0 size=N/A time=00:00:43.46 bitrate=N/A speed=16.8x    frame= 1254 fps=403 q=-0.0 size=N/A time=00:00:52.30 bitrate=N/A speed=16.8x    frame= 1469 fps=405 q=-0.0 size=N/A time=00:01:01.26 bitrate=N/A speed=16.9x    frame= 1727 fps=416 q=-0.0 size=N/A time=00:01:12.03 bitrate=N/A speed=17.3x    frame= 1959 fps=419 q=-0.0 size=N/A time=00:01:21.70 bitrate=N/A speed=17.5x    frame= 2198 fps=424 q=-0.0 size=N/A time=00:01:31.67 bitrate=N/A speed=17.7x    frame= 2442 fps=429 q=-0.0 size=N/A time=00:01:41.85 bitrate=N/A speed=17.9x    frame= 2640 fps=425 q=-0.0 size=N/A time=00:01:50.11 bitrate=N/A speed=17.7x    frame= 2836 fps=422 q=-0.0 size=N/A time=00:01:58.28 bitrate=N/A speed=17.6x    frame= 3074 fps=425 q=-0.0 size=N/A time=00:02:08.21 bitrate=N/A speed=17.7x    frame= 3323 fps=428 q=-0.0 size=N/A time=00:02:18.59 bitrate=N/A speed=17.9x    frame= 3532 fps=427 q=-0.0 size=N/A time=00:02:27.31 bitrate=N/A speed=17.8x    frame= 3727 fps=424 q=-0.0 size=N/A time=00:02:35.44 bitrate=N/A speed=17.7x    frame= 3944 fps=424 q=-0.0 size=N/A time=00:02:44.49 bitrate=N/A speed=17.7x    frame= 4158 fps=423 q=-0.0 size=N/A time=00:02:53.42 bitrate=N/A speed=17.7x    frame= 4411 fps=427 q=-0.0 size=N/A time=00:03:03.97 bitrate=N/A speed=17.8x    frame= 4623 fps=426 q=-0.0 size=N/A time=00:03:12.81 bitrate=N/A speed=17.8x    frame= 4846 fps=426 q=-0.0 size=N/A time=00:03:22.11 bitrate=N/A speed=17.8x    frame= 5097 fps=429 q=-0.0 size=N/A time=00:03:32.58 bitrate=N/A speed=17.9x    frame= 5292 fps=427 q=-0.0 size=N/A time=00:03:40.72 bitrate=N/A speed=17.8x    frame= 5497 fps=426 q=-0.0 size=N/A time=00:03:49.27 bitrate=N/A speed=17.8x    frame= 5691 fps=424 q=-0.0 size=N/A time=00:03:57.36 bitrate=N/A speed=17.7x    frame= 5911 fps=424 q=-0.0 size=N/A time=00:04:06.53 bitrate=N/A speed=17.7x    frame= 6130 fps=424 q=-0.0 size=N/A time=00:04:15.67 bitrate=N/A speed=17.7x    frame= 6353 fps=424 q=-0.0 size=N/A time=00:04:24.97 bitrate=N/A speed=17.7x    frame= 6564 fps=424 q=-0.0 size=N/A time=00:04:33.77 bitrate=N/A speed=17.7x    frame= 6783 fps=424 q=-0.0 size=N/A time=00:04:42.90 bitrate=N/A speed=17.7x    frame= 6984 fps=423 q=-0.0 size=N/A time=00:04:51.29 bitrate=N/A speed=17.6x    frame= 7222 fps=424 q=-0.0 size=N/A time=00:05:01.21 bitrate=N/A speed=17.7x    frame= 7472 fps=426 q=-0.0 size=N/A time=00:05:11.64 bitrate=N/A speed=17.8x    frame= 7723 fps=428 q=-0.0 size=N/A time=00:05:22.11 bitrate=N/A speed=17.8x    frame= 7980 fps=429 q=-0.0 size=N/A time=00:05:32.83 bitrate=N/A speed=17.9x    frame= 8239 fps=431 q=-0.0 size=N/A time=00:05:43.63 bitrate=N/A speed=  18x    frame= 8464 fps=432 q=-0.0 size=N/A time=00:05:53.01 bitrate=N/A speed=  18x    frame= 8692 fps=432 q=-0.0 size=N/A time=00:06:02.52 bitrate=N/A speed=  18x    frame= 8942 fps=433 q=-0.0 size=N/A time=00:06:12.95 bitrate=N/A speed=18.1x    frame= 9193 fps=434 q=-0.0 size=N/A time=00:06:23.42 bitrate=N/A speed=18.1x    frame= 9431 fps=435 q=-0.0 size=N/A time=00:06:33.35 bitrate=N/A speed=18.1x    frame= 9675 fps=436 q=-0.0 size=N/A time=00:06:43.52 bitrate=N/A speed=18.2x    frame= 9879 fps=435 q=-0.0 size=N/A time=00:06:52.03 bitrate=N/A speed=18.1x    frame=10130 fps=436 q=-0.0 size=N/A time=00:07:02.50 bitrate=N/A speed=18.2x    frame=10371 fps=437 q=-0.0 size=N/A time=00:07:12.55 bitrate=N/A speed=18.2x    frame=10584 fps=436 q=-0.0 size=N/A time=00:07:21.44 bitrate=N/A speed=18.2x    frame=10816 fps=437 q=-0.0 size=N/A time=00:07:31.11 bitrate=N/A speed=18.2x    frame=11046 fps=437 q=-0.0 size=N/A time=00:07:40.71 bitrate=N/A speed=18.2x    frame=11301 fps=438 q=-0.0 size=N/A time=00:07:51.34 bitrate=N/A speed=18.3x    frame=11539 fps=438 q=-0.0 size=N/A time=00:08:01.27 bitrate=N/A speed=18.3x    frame=11771 fps=439 q=-0.0 size=N/A time=00:08:10.94 bitrate=N/A speed=18.3x    frame=11999 fps=439 q=-0.0 size=N/A time=00:08:20.45 bitrate=N/A speed=18.3x    frame=12241 fps=439 q=-0.0 size=N/A time=00:08:30.55 bitrate=N/A speed=18.3x    frame=12494 fps=440 q=-0.0 size=N/A time=00:08:41.10 bitrate=N/A speed=18.4x    frame=12745 fps=441 q=-0.0 size=N/A time=00:08:51.57 bitrate=N/A speed=18.4x    frame=12996 fps=442 q=-0.0 size=N/A time=00:09:02.04 bitrate=N/A speed=18.4x    frame=13229 fps=442 q=-0.0 size=N/A time=00:09:11.75 bitrate=N/A speed=18.4x    frame=13501 fps=443 q=-0.0 size=N/A time=00:09:23.10 bitrate=N/A speed=18.5x    frame=13741 fps=444 q=-0.0 size=N/A time=00:09:33.11 bitrate=N/A speed=18.5x    frame=13950 fps=443 q=-0.0 size=N/A time=00:09:41.83 bitrate=N/A speed=18.5x    frame=14205 fps=444 q=-0.0 size=N/A time=00:09:52.46 bitrate=N/A speed=18.5x    frame=14423 fps=444 q=-0.0 size=N/A time=00:10:01.55 bitrate=N/A speed=18.5x    frame=14664 fps=444 q=-0.0 size=N/A time=00:10:11.61 bitrate=N/A speed=18.5x    frame=14909 fps=444 q=-0.0 size=N/A time=00:10:21.82 bitrate=N/A speed=18.5x    frame=15135 fps=444 q=-0.0 size=N/A time=00:10:31.25 bitrate=N/A speed=18.5x    frame=15246 fps=441 q=-0.0 size=N/A time=00:10:35.88 bitrate=N/A speed=18.4x    frame=15455 fps=440 q=-0.0 size=N/A time=00:10:44.60 bitrate=N/A speed=18.4x    frame=15683 fps=440 q=-0.0 size=N/A time=00:10:54.11 bitrate=N/A speed=18.4x    frame=15947 fps=441 q=-0.0 size=N/A time=00:11:05.12 bitrate=N/A speed=18.4x    frame=16199 fps=442 q=-0.0 size=N/A time=00:11:15.63 bitrate=N/A speed=18.4x    frame=16467 fps=443 q=-0.0 size=N/A time=00:11:26.81 bitrate=N/A speed=18.5x    frame=16716 fps=444 q=-0.0 size=N/A time=00:11:37.19 bitrate=N/A speed=18.5x    frame=16980 fps=444 q=-0.0 size=N/A time=00:11:48.20 bitrate=N/A speed=18.5x    frame=17210 fps=444 q=-0.0 size=N/A time=00:11:57.80 bitrate=N/A speed=18.5x    frame=17451 fps=445 q=-0.0 size=N/A time=00:12:07.85 bitrate=N/A speed=18.6x    frame=17703 fps=445 q=-0.0 size=N/A time=00:12:18.36 bitrate=N/A speed=18.6x    frame=17948 fps=446 q=-0.0 size=N/A time=00:12:28.58 bitrate=N/A speed=18.6x    frame=18153 fps=445 q=-0.0 size=N/A time=00:12:37.13 bitrate=N/A speed=18.6x    frame=18401 fps=446 q=-0.0 size=N/A time=00:12:47.47 bitrate=N/A speed=18.6x    frame=18659 fps=446 q=-0.0 size=N/A time=00:12:58.23 bitrate=N/A speed=18.6x    frame=18906 fps=447 q=-0.0 size=N/A time=00:13:08.53 bitrate=N/A speed=18.6x    frame=19125 fps=446 q=-0.0 size=N/A time=00:13:17.67 bitrate=N/A speed=18.6x    frame=19332 fps=446 q=-0.0 size=N/A time=00:13:26.30 bitrate=N/A speed=18.6x    frame=19587 fps=446 q=-0.0 size=N/A time=00:13:36.94 bitrate=N/A speed=18.6x    frame=19851 fps=447 q=-0.0 size=N/A time=00:13:47.95 bitrate=N/A speed=18.7x    frame=20104 fps=448 q=-0.0 size=N/A time=00:13:58.50 bitrate=N/A speed=18.7x    frame=20369 fps=448 q=-0.0 size=N/A time=00:14:09.55 bitrate=N/A speed=18.7x    frame=20617 fps=449 q=-0.0 size=N/A time=00:14:19.90 bitrate=N/A speed=18.7x    frame=20850 fps=449 q=-0.0 size=N/A time=00:14:29.61 bitrate=N/A speed=18.7x    frame=20999 fps=447 q=-0.0 size=N/A time=00:14:35.83 bitrate=N/A speed=18.6x    frame=21229 fps=447 q=-0.0 size=N/A time=00:14:45.42 bitrate=N/A speed=18.6x    frame=21478 fps=447 q=-0.0 size=N/A time=00:14:55.81 bitrate=N/A speed=18.7x    frame=21738 fps=448 q=-0.0 size=N/A time=00:15:06.65 bitrate=N/A speed=18.7x    frame=21983 fps=448 q=-0.0 size=N/A time=00:15:16.87 bitrate=N/A speed=18.7x    frame=22212 fps=448 q=-0.0 size=N/A time=00:15:26.42 bitrate=N/A speed=18.7x    frame=22436 fps=448 q=-0.0 size=N/A time=00:15:35.76 bitrate=N/A speed=18.7x    frame=22677 fps=448 q=-0.0 size=N/A time=00:15:45.81 bitrate=N/A speed=18.7x    frame=22948 fps=449 q=-0.0 size=N/A time=00:15:57.12 bitrate=N/A speed=18.7x    frame=23201 fps=449 q=-0.0 size=N/A time=00:16:07.67 bitrate=N/A speed=18.7x    frame=23474 fps=450 q=-0.0 size=N/A time=00:16:19.06 bitrate=N/A speed=18.8x    frame=23684 fps=450 q=-0.0 size=N/A time=00:16:27.82 bitrate=N/A speed=18.8x    frame=23916 fps=450 q=-0.0 size=N/A time=00:16:37.49 bitrate=N/A speed=18.8x    frame=24172 fps=450 q=-0.0 size=N/A time=00:16:48.17 bitrate=N/A speed=18.8x    frame=24440 fps=451 q=-0.0 size=N/A time=00:16:59.35 bitrate=N/A speed=18.8x    frame=24660 fps=451 q=-0.0 size=N/A time=00:17:08.52 bitrate=N/A speed=18.8x    frame=24863 fps=450 q=-0.0 size=N/A time=00:17:16.99 bitrate=N/A speed=18.8x    frame=25092 fps=450 q=-0.0 size=N/A time=00:17:26.54 bitrate=N/A speed=18.8x    frame=25339 fps=450 q=-0.0 size=N/A time=00:17:36.84 bitrate=N/A speed=18.8x    frame=25574 fps=450 q=-0.0 size=N/A time=00:17:46.64 bitrate=N/A speed=18.8x    frame=25783 fps=450 q=-0.0 size=N/A time=00:17:55.36 bitrate=N/A speed=18.8x    frame=26030 fps=450 q=-0.0 size=N/A time=00:18:05.66 bitrate=N/A speed=18.8x    frame=26285 fps=450 q=-0.0 size=N/A time=00:18:16.30 bitrate=N/A speed=18.8x    frame=26496 fps=450 q=-0.0 size=N/A time=00:18:25.10 bitrate=N/A speed=18.8x    frame=26712 fps=450 q=-0.0 size=N/A time=00:18:34.11 bitrate=N/A speed=18.8x    frame=26929 fps=450 q=-0.0 size=N/A time=00:18:43.16 bitrate=N/A speed=18.8x    frame=27158 fps=450 q=-0.0 size=N/A time=00:18:52.71 bitrate=N/A speed=18.7x    frame=27399 fps=450 q=-0.0 size=N/A time=00:19:02.76 bitrate=N/A speed=18.8x    frame=27600 fps=449 q=-0.0 size=N/A time=00:19:11.15 bitrate=N/A speed=18.7x    frame=27775 fps=448 q=-0.0 size=N/A time=00:19:18.44 bitrate=N/A speed=18.7x    frame=27956 fps=447 q=-0.0 size=N/A time=00:19:25.99 bitrate=N/A speed=18.7x    frame=28200 fps=448 q=-0.0 size=N/A time=00:19:36.17 bitrate=N/A speed=18.7x    frame=28444 fps=448 q=-0.0 size=N/A time=00:19:46.35 bitrate=N/A speed=18.7x    frame=28667 fps=448 q=-0.0 size=N/A time=00:19:55.65 bitrate=N/A speed=18.7x    frame=28893 fps=448 q=-0.0 size=N/A time=00:20:05.07 bitrate=N/A speed=18.7x    frame=29135 fps=448 q=-0.0 size=N/A time=00:20:15.17 bitrate=N/A speed=18.7x    frame=29388 fps=448 q=-0.0 size=N/A time=00:20:25.72 bitrate=N/A speed=18.7x    frame=29631 fps=448 q=-0.0 size=N/A time=00:20:35.85 bitrate=N/A speed=18.7x    frame=29869 fps=448 q=-0.0 size=N/A time=00:20:45.78 bitrate=N/A speed=18.7x    frame=30112 fps=449 q=-0.0 size=N/A time=00:20:55.92 bitrate=N/A speed=18.7x    frame=30366 fps=449 q=-0.0 size=N/A time=00:21:06.51 bitrate=N/A speed=18.7x    frame=30610 fps=449 q=-0.0 size=N/A time=00:21:16.69 bitrate=N/A speed=18.7x    frame=30804 fps=449 q=-0.0 size=N/A time=00:21:24.78 bitrate=N/A speed=18.7x    frame=31058 fps=449 q=-0.0 size=N/A time=00:21:35.37 bitrate=N/A speed=18.7x    frame=31280 fps=449 q=-0.0 size=N/A time=00:21:44.63 bitrate=N/A speed=18.7x    frame=31521 fps=449 q=-0.0 size=N/A time=00:21:54.68 bitrate=N/A speed=18.7x    frame=31759 fps=449 q=-0.0 size=N/A time=00:22:04.61 bitrate=N/A speed=18.7x    frame=31956 fps=448 q=-0.0 size=N/A time=00:22:12.83 bitrate=N/A speed=18.7x    frame=32155 fps=448 q=-0.0 size=N/A time=00:22:21.13 bitrate=N/A speed=18.7x    frame=32351 fps=448 q=-0.0 size=N/A time=00:22:29.30 bitrate=N/A speed=18.7x    frame=32551 fps=447 q=-0.0 size=N/A time=00:22:37.64 bitrate=N/A speed=18.6x    frame=32747 fps=447 q=-0.0 size=N/A time=00:22:45.82 bitrate=N/A speed=18.6x    frame=32946 fps=446 q=-0.0 size=N/A time=00:22:54.12 bitrate=N/A speed=18.6x    frame=33136 fps=446 q=-0.0 size=N/A time=00:23:02.04 bitrate=N/A speed=18.6x    frame=33330 fps=445 q=-0.0 size=N/A time=00:23:10.13 bitrate=N/A speed=18.6x    frame=33522 fps=445 q=-0.0 size=N/A time=00:23:18.14 bitrate=N/A speed=18.5x    frame=33714 fps=444 q=-0.0 size=N/A time=00:23:26.15 bitrate=N/A speed=18.5x    frame=33911 fps=444 q=-0.0 size=N/A time=00:23:34.37 bitrate=N/A speed=18.5x    frame=34115 fps=443 q=-0.0 size=N/A time=00:23:42.87 bitrate=N/A speed=18.5x    [Parsed_psnr_10 @ 000001f38df67d00] PSNR y:49.389778 u:50.256700 v:50.704145 average:49.722178 min:40.805999 max:inf
[out#0/null @ 000001f3ffa9f5c0] video:14697KiB audio:267516KiB subtitle:0KiB other streams:0KiB global headers:0KiB muxing overhead: unknown
frame=34203 fps=444 q=-0.0 Lsize=N/A time=00:23:46.55 bitrate=N/A speed=18.5x    
